<svg width="68" height="100" viewBox="0 0 68 100" fill="none" xmlns="http://www.w3.org/2000/svg">
<path d="M17.3332 100.001C26.5332 100.001 33.9998 92.5346 33.9998 83.3346V66.668H17.3332C8.13317 66.668 0.666504 74.1346 0.666504 83.3346C0.666504 92.5346 8.13317 100.001 17.3332 100.001Z" fill="#0ACF83"/>
<path d="M0.666504 49.9987C0.666504 40.7987 8.13317 33.332 17.3332 33.332H33.9998V66.6653H17.3332C8.13317 66.6653 0.666504 59.1987 0.666504 49.9987Z" fill="#A259FF"/>
<path d="M0.666504 16.6667C0.666504 7.46666 8.13317 0 17.3332 0H33.9998V33.3333H17.3332C8.13317 33.3333 0.666504 25.8667 0.666504 16.6667Z" fill="#F24E1E"/>
<path d="M34 0H50.6667C59.8667 0 67.3334 7.46666 67.3334 16.6667C67.3334 25.8667 59.8667 33.3333 50.6667 33.3333H34V0Z" fill="#FF7262"/>
<path d="M67.3334 49.9987C67.3334 59.1987 59.8667 66.6653 50.6667 66.6653C41.4667 66.6653 34 59.1987 34 49.9987C34 40.7987 41.4667 33.332 50.6667 33.332C59.8667 33.332 67.3334 40.7987 67.3334 49.9987Z" fill="#1ABCFE"/>
</svg>
