<svg width="74" height="100" viewBox="0 0 74 100" fill="none" xmlns="http://www.w3.org/2000/svg">
<path d="M48.3061 36.1228L38.3053 45.4344L29.022 26.7017L33.8177 15.9307C35.0298 13.7821 37.0121 13.7537 38.2242 15.9307L48.3061 36.1228Z" fill="#FFA000"/>
<path d="M38.3092 45.4279L0.900391 80.222L29.0259 26.6992L38.3092 45.4279Z" fill="#F57F17"/>
<path d="M59.2716 21.8796C61.0634 20.1729 62.9078 20.7485 63.374 23.1727L73.0992 79.7522L40.8428 99.1173C39.7118 99.7497 36.712 99.997 36.712 99.997C36.712 99.997 33.9837 99.6646 32.9378 99.089L0.900391 80.2224L59.2716 21.8796Z" fill="#FFCA28"/>
<path d="M29.0259 26.7004L0.900391 80.2231L13.4348 1.9923C13.9051 -0.431896 15.2793 -0.679179 16.5198 1.46935L29.0259 26.7004Z" fill="#FFA000"/>
</svg>
