<svg width="74" height="100" viewBox="0 0 74 100" fill="none" xmlns="http://www.w3.org/2000/svg">
<path d="M23.8768 77.3351C23.8768 77.3351 20.0555 79.5573 26.5964 80.3092C34.5207 81.2132 38.5704 81.0837 47.3031 79.4308C47.3031 79.4308 49.5991 80.8704 52.8052 82.1174C33.2294 90.5072 8.50069 81.6313 23.8768 77.3351V77.3351ZM21.4846 66.3867C21.4846 66.3867 17.1986 69.5594 23.7445 70.2364C32.2093 71.1096 38.8941 71.1811 50.4617 68.9537C50.4617 68.9537 52.0616 70.5757 54.5774 71.4628C30.9087 78.3838 4.54621 72.0086 21.4846 66.3867" fill="#5382A1"/>
<path d="M41.6508 47.8161C46.4744 53.3694 40.3835 58.3668 40.3835 58.3668C40.3835 58.3668 52.6311 52.0442 47.0063 44.1266C41.753 36.7434 37.7241 33.0744 59.5339 20.4258C59.5339 20.4258 25.2999 28.9758 41.6508 47.8159" fill="#E76F00"/>
<path d="M67.5415 85.4345C67.5415 85.4345 70.3694 87.7645 64.427 89.5671C53.1276 92.9903 17.3972 94.0239 7.47133 89.7035C3.90339 88.1516 10.5946 85.9974 12.6992 85.5452C14.8942 85.0692 16.1487 85.158 16.1487 85.158C12.1806 82.3626 -9.4992 90.6468 5.13652 93.019C45.0498 99.4918 77.8944 90.1045 67.5415 85.4345ZM25.7141 55.0442C25.7141 55.0442 7.53966 59.3612 19.2783 60.9285C24.2346 61.5921 34.115 61.4421 43.3184 60.6708C50.84 60.0367 58.3925 58.6875 58.3925 58.6875C58.3925 58.6875 55.7404 59.8233 53.8216 61.1335C35.3655 65.9875 -0.288506 63.7295 9.97581 58.7642C18.6564 54.5682 25.7144 55.0442 25.7144 55.0442H25.7141ZM58.3175 73.2682C77.0794 63.519 68.4046 54.1501 62.3499 55.4125C60.8657 55.7212 60.2041 55.9887 60.2041 55.9887C60.2041 55.9887 60.7551 55.1259 61.8073 54.7524C73.7854 50.5411 82.9975 67.1726 57.9405 73.7596C57.9405 73.7599 58.2309 73.5004 58.3175 73.2682" fill="#5382A1"/>
<path d="M47.0061 0.000289532C47.0061 0.000289532 57.3966 10.3946 37.1511 26.3772C20.9166 39.1985 33.4491 46.5086 37.1445 54.8609C27.668 46.3109 20.7133 38.7841 25.3792 31.7791C32.227 21.4957 51.1982 16.5102 47.0061 0" fill="#E76F00"/>
<path d="M27.5577 99.6843C45.5665 100.837 73.2209 99.0447 73.8759 90.5234C73.8759 90.5234 72.617 93.754 58.9926 96.3193C43.6217 99.2117 24.664 98.8742 13.4199 97.0203C13.4202 97.0203 15.7217 98.9254 27.558 99.6843" fill="#5382A1"/>
</svg>
