<svg width="97" height="100" viewBox="0 0 97 100" fill="none" xmlns="http://www.w3.org/2000/svg">
<path d="M96.4935 22.485C96.5293 22.6175 96.5476 22.7541 96.548 22.8914V44.2255C96.548 44.4993 96.4757 44.7683 96.3384 45.0052C96.2012 45.2422 96.0038 45.4387 95.7663 45.5749L77.8602 55.8842V76.3181C77.8602 76.8742 77.5646 77.3875 77.0824 77.6675L39.7049 99.1844C39.6194 99.233 39.5261 99.2642 39.4327 99.2972C39.3977 99.3089 39.3647 99.3303 39.3277 99.34C39.0664 99.4088 38.7918 99.4088 38.5305 99.34C38.4877 99.3283 38.4489 99.305 38.408 99.2894C38.3225 99.2583 38.233 99.2311 38.1514 99.1844L0.781655 77.6675C0.544256 77.5311 0.347002 77.3346 0.209772 77.0977C0.072543 76.8608 0.000188101 76.5919 0 76.3181L0 12.3157C0 12.1757 0.0194441 12.0396 0.0544436 11.9074C0.0661101 11.8626 0.0933319 11.8218 0.108887 11.7771C0.138053 11.6954 0.165275 11.6118 0.208052 11.536C0.237219 11.4854 0.279996 11.4446 0.314995 11.3979C0.359717 11.3357 0.400549 11.2715 0.453049 11.2171C0.49777 11.1724 0.556103 11.1393 0.606657 11.1004C0.663045 11.0538 0.7136 11.0032 0.777766 10.9663H0.77971L19.4655 0.207802C19.7021 0.0716552 19.9703 0 20.2433 0C20.5163 0 20.7845 0.0716552 21.0211 0.207802L39.7069 10.9663H39.7108C39.773 11.0051 39.8255 11.0538 39.8819 11.0985C39.9324 11.1374 39.9888 11.1724 40.0336 11.2151C40.088 11.2715 40.1269 11.3357 40.1735 11.3979C40.2066 11.4446 40.2513 11.4854 40.2785 11.536C40.3233 11.6138 40.3485 11.6954 40.3797 11.7771C40.3952 11.8218 40.4224 11.8626 40.4341 11.9093C40.4699 12.0418 40.4882 12.1784 40.4885 12.3157V52.2909L56.0594 43.3252V22.8894C56.0594 22.7533 56.0789 22.6153 56.1139 22.485C56.1275 22.4383 56.1527 22.3975 56.1683 22.3528C56.1994 22.2711 56.2266 22.1875 56.2694 22.1117C56.2986 22.0611 56.3414 22.0203 56.3744 21.9736C56.4211 21.9114 56.46 21.8472 56.5144 21.7928C56.5591 21.7481 56.6155 21.715 56.6661 21.6761C56.7244 21.6294 56.775 21.5789 56.8372 21.5419H56.8391L75.5269 10.7835C75.7634 10.6471 76.0316 10.5754 76.3047 10.5754C76.5777 10.5754 76.8459 10.6471 77.0824 10.7835L95.7682 21.5419C95.8344 21.5808 95.8849 21.6294 95.9432 21.6742C95.9919 21.7131 96.0482 21.748 96.093 21.7908C96.1474 21.8472 96.1863 21.9114 96.233 21.9736C96.268 22.0203 96.3107 22.0611 96.338 22.1117C96.3827 22.1875 96.408 22.2711 96.4391 22.3528C96.4566 22.3975 96.4818 22.4383 96.4935 22.485V22.485ZM93.433 43.3252V25.5844L86.8939 29.3488L77.8602 34.5501V52.2909L93.435 43.3252H93.433ZM74.7472 75.4178V57.6653L65.8612 62.7402L40.4866 77.2223V95.142L74.7472 75.4178ZM3.11495 15.0087V75.4178L37.3716 95.1401V77.2242L19.4753 67.0957L19.4694 67.0918L19.4616 67.088C19.4014 67.053 19.3508 67.0024 19.2944 66.9596C19.2458 66.9207 19.1894 66.8896 19.1466 66.8469L19.1428 66.841C19.0922 66.7924 19.0572 66.7321 19.0144 66.6777C18.9755 66.6252 18.9289 66.5805 18.8978 66.526L18.8958 66.5202C18.8608 66.4619 18.8394 66.3919 18.8142 66.3257C18.7889 66.2674 18.7558 66.213 18.7403 66.1507V66.1488C18.7208 66.0749 18.7169 65.9971 18.7092 65.9213C18.7014 65.863 18.6858 65.8046 18.6858 65.7463V23.9744L9.65402 18.7711L3.11495 15.0106V15.0087ZM20.2452 3.35387L4.67632 12.3157L20.2414 21.2775L35.8083 12.3137L20.2414 3.35387H20.2452ZM28.3418 59.2831L37.3736 54.0837V15.0087L30.8345 18.7731L21.8008 23.9744V63.0494L28.3418 59.2831ZM76.3047 13.9296L60.7377 22.8914L76.3047 31.8532L91.8697 22.8894L76.3047 13.9296ZM74.7472 34.5501L65.7134 29.3488L59.1744 25.5844V43.3252L68.2062 48.5246L74.7472 52.2909V34.5501ZM38.9272 74.5292L61.7604 61.4939L73.1741 54.9801L57.6188 46.0241L39.7088 56.3353L23.3855 65.7327L38.9272 74.5292Z" fill="#FF2D20"/>
</svg>
