<svg width="100" height="60" viewBox="0 0 100 60" fill="none" xmlns="http://www.w3.org/2000/svg">
<path d="M50 0.0078125C36.6663 0.0078125 28.3331 6.6728 24.9994 20.0015C30 13.3365 35.8334 10.8381 42.4997 12.5037C46.3036 13.4541 49.0221 16.2139 52.032 19.2675C56.9339 24.2419 62.6072 29.999 75.0006 29.999C88.3331 29.999 96.6675 23.334 100 10.004C95.0006 16.669 89.1672 19.1687 82.4997 17.5031C78.697 16.5527 75.9785 13.793 72.9686 10.7393C68.0668 5.76496 62.3921 0.0078125 50 0.0078125V0.0078125ZM24.9994 29.999C11.6669 29.999 3.3325 36.664 0 49.994C4.99937 43.329 10.8328 40.8293 17.5003 42.4962C21.303 43.4478 24.0215 46.2063 27.0314 49.2587C31.9332 54.2331 37.6079 59.9915 50 59.9915C63.3338 59.9915 71.6669 53.3265 75.0006 39.9965C70 46.6615 64.1666 49.1612 57.5003 47.4943C53.6964 46.5452 50.9779 43.7842 47.968 40.7318C43.0662 35.7574 37.3928 29.999 24.9994 29.999V29.999Z" fill="#06B6D4"/>
</svg>
