<svg width="100" height="98" viewBox="0 0 100 98" fill="none" xmlns="http://www.w3.org/2000/svg">
<path d="M4.1665 4.41797H95.8331V93.5845H4.1665V4.41797Z" fill="#2E001E"/>
<path d="M0 0.25V97.7499H100V0.25H0ZM4.16667 4.41666H95.8333V93.5833H4.16667V4.41666Z" fill="#FF2BC2"/>
<path d="M72.6249 41.2083C71.9999 40.9166 71.2083 40.7916 70.2083 40.7916C64.9583 40.7916 61.4583 44.8333 61.4583 51.5416C61.4583 59.2082 65.0416 62.2916 69.7083 62.2916C70.7083 62.2916 71.7916 62.1666 72.5833 61.8332V41.2083H72.6249ZM53.9583 51.8749C53.9583 42.1666 60.2083 34.5833 70.4583 34.5833C71.3333 34.5833 71.7916 34.5833 72.6249 34.6666V23.8333C72.6249 23.5833 72.8333 23.4167 73.0416 23.4167H79.7499C80.0833 23.4167 80.1666 23.5417 80.1666 23.75V61.8332C80.1666 62.9582 80.1666 64.3749 80.3749 65.9166C80.3749 66.2082 80.3749 66.2499 80.1249 66.3749C76.6249 68.0416 72.9583 68.7916 69.4583 68.7916C60.4166 68.7916 53.9583 63.2082 53.9583 51.8749V51.8749ZM39.7499 45.1249L51.4166 67.7499C51.6249 68.0832 51.4999 68.4166 51.1666 68.4166H43.9166C43.4583 68.4166 43.2499 68.2916 43.0416 67.8749C40.3749 62.3749 37.6666 56.6666 34.8749 50.7499H34.7916C32.2916 56.3332 29.5416 62.4166 26.8749 67.9166C26.6666 68.2499 26.4583 68.3749 26.1249 68.3749H19.2083C18.7916 68.3749 18.7499 68.0416 18.9583 67.7916L30.3749 45.8333L19.3333 24C19.0833 23.6667 19.3333 23.375 19.6249 23.375H26.7916C27.2083 23.375 27.4166 23.4583 27.5416 23.8333C30.1666 29.375 32.8333 34.8333 35.3333 40.4166H35.4166C37.8333 34.9166 40.4999 29.375 43.0416 23.9167C43.2499 23.5833 43.3749 23.375 43.7916 23.375H50.4999C50.8333 23.375 50.9583 23.625 50.7499 24L39.7499 45.1249V45.1249Z" fill="#FF2BC2"/>
</svg>
