<svg width="855" height="808" viewBox="0 0 855 808" fill="none" xmlns="http://www.w3.org/2000/svg">
<path d="M712.731 60.6121C713.601 57.3114 717.939 56.5465 719.885 59.3506L729.631 73.3926C730.424 74.5354 731.754 75.1841 733.143 75.1055L750.208 74.14C753.616 73.9472 755.684 77.8367 753.619 80.5542L743.276 94.1619C742.434 95.2694 742.228 96.7348 742.732 98.0314L748.923 113.963C750.16 117.145 747.1 120.313 743.877 119.189L727.739 113.557C726.426 113.098 724.968 113.355 723.891 114.235L710.652 125.047C708.009 127.206 704.049 125.275 704.123 121.863L704.493 104.774C704.523 103.383 703.828 102.077 702.658 101.324L688.285 92.0743C685.414 90.2272 686.027 85.865 689.296 84.8806L705.662 79.9512C706.994 79.55 708.022 78.4856 708.376 77.1404L712.731 60.6121Z" fill="url(#paint0_linear_346_3991)"/>
<defs>
<linearGradient id="paint0_linear_346_3991" x1="688.438" y1="141.327" x2="755.882" y2="45.0073" gradientUnits="userSpaceOnUse">
<stop stop-color="#006A0E"/>
<stop offset="0.651042" stop-color="#39E94B"/>
<stop offset="0.760417" stop-color="#6CFF7B"/>
</linearGradient>
</defs>
</svg>
