<svg width="855" height="808" viewBox="0 0 855 808" fill="none" xmlns="http://www.w3.org/2000/svg">
<path d="M35.8738 472.481C35.6342 469.647 39.1053 468.101 41.0512 470.176L49.2238 478.888C50.0822 479.804 51.4195 480.088 52.5759 479.601L63.5857 474.966C66.2072 473.862 68.7496 476.685 67.3779 479.177L61.617 489.642C61.0119 490.741 61.1548 492.101 61.9753 493.05L69.786 502.089C71.6458 504.241 69.746 507.532 66.9524 506.997L55.2194 504.752C53.987 504.516 52.738 505.072 52.0886 506.146L45.9062 516.367C44.4341 518.801 40.7175 518.011 40.3627 515.189L38.8722 503.337C38.7156 502.092 37.8008 501.076 36.579 500.79L24.9473 498.069C22.1777 497.421 21.7805 493.642 24.3549 492.432L35.1667 487.352C36.3023 486.818 36.9859 485.634 36.8802 484.384L35.8738 472.481Z" fill="url(#paint0_linear_346_3991)"/>
<defs>
<linearGradient id="paint0_linear_346_3991" x1="31.9795" y1="534.581" x2="64.0601" y2="451.008" gradientUnits="userSpaceOnUse">
<stop stop-color="#0085A6"/>
<stop offset="0.40625" stop-color="#15AAC1"/>
<stop offset="0.651042" stop-color="#3CEDF4"/>
<stop offset="0.760417" stop-color="#B3F9FC"/>
</linearGradient>
</defs>
</svg>
