<svg width="855" height="808" viewBox="0 0 855 808" fill="none" xmlns="http://www.w3.org/2000/svg">
<path d="M590.045 759.345C590.004 756.501 593.574 755.202 595.371 757.407L600.114 763.23C600.907 764.202 602.221 764.579 603.408 764.174L610.516 761.75C613.208 760.832 615.548 763.826 614.005 766.216L609.934 772.526C609.253 773.58 609.301 774.947 610.053 775.951L614.555 781.962C616.26 784.239 614.136 787.389 611.386 786.66L604.126 784.738C602.913 784.417 601.629 784.884 600.906 785.91L596.581 792.049C594.942 794.374 591.29 793.327 591.133 790.487L590.718 782.989C590.648 781.736 589.807 780.658 588.608 780.288L581.433 778.071C578.715 777.232 578.582 773.435 581.235 772.408L588.238 769.696C589.408 769.243 590.173 768.109 590.154 766.855L590.045 759.345Z" fill="url(#paint0_linear_346_3991)"/>
<defs>
<linearGradient id="paint0_linear_346_3991" x1="583.412" y1="807.262" x2="613.84" y2="742.01" gradientUnits="userSpaceOnUse">
<stop stop-color="#0085A6"/>
<stop offset="0.40625" stop-color="#15AAC1"/>
<stop offset="0.651042" stop-color="#3CEDF4"/>
<stop offset="0.760417" stop-color="#B3F9FC"/>
</linearGradient>
</defs>
</svg>
